<svg id="Capa_1" data-name="Capa 1" xmlns="http://www.w3.org/2000/svg" viewBox="0 0 656.27 130.32"><defs><style>.cls-1{fill:#212c3d;}.cls-2{fill:#800040;}</style></defs><title>logo_liberajus_horizontal</title><polygon class="cls-1" points="157.5 29.52 140.32 29.52 140.32 100.8 187.41 100.8 187.41 87.58 157.5 87.58 157.5 29.52"/><rect class="cls-1" x="195.83" y="29.52" width="17.13" height="71.27"/><path class="cls-1" d="M7140.44,7193.23a14.88,14.88,0,0,0,7.49-5.78,17,17,0,0,0,2.54-9.44q0-9.6-7.17-14.64t-20.93-5h-25.6v71.27h28.93q13-.09,19.66-5.36t6.63-15.74a16,16,0,0,0-3-9.79A15,15,0,0,0,7140.44,7193.23ZM7114,7171.54h8.42c3.85,0,6.64.67,8.37,2s2.6,3.5,2.6,6.51a7.31,7.31,0,0,1-2.4,5.94q-2.4,2-8,2.06h-9Zm18.41,42.71c-1.66,1.42-4,2.13-7.15,2.13H7114V7199.3H7126q8.85,0,8.86,9A7.45,7.45,0,0,1,7132.36,7214.25Z" transform="translate(-6871.87 -7128.81)"/><polygon class="cls-1" points="289.57 100.8 338.67 100.8 338.67 87.58 306.75 87.58 306.75 70.54 333.77 70.54 333.77 57.81 306.75 57.81 306.75 42.79 338.77 42.79 338.77 29.52 289.57 29.52 289.57 100.8"/><path class="cls-1" d="M7269.55,7192.17q3-4.89,3-12.33,0-10.26-7.15-15.89t-19.82-5.62h-28.05v71.27h17.18v-25.21h9.3l12.58,25.21H7275v-.73l-14.89-28.78A21.37,21.37,0,0,0,7269.55,7192.17Zm-16.6-3.57c-1.65,1.72-4.1,2.57-7.36,2.57h-10.87v-19.63h10.87c3.23,0,5.67.88,7.34,2.63a10.09,10.09,0,0,1,2.49,7.24A10,10,0,0,1,7253,7188.6Z" transform="translate(-6871.87 -7128.81)"/><path class="cls-1" d="M7303.54,7158.33l-26.14,71.27h18.36l4.11-13.31h23.55l4.16,13.31H7346l-26.33-71.27ZM7304,7203l7.64-24.72,7.69,24.72Z" transform="translate(-6871.87 -7128.81)"/><path class="cls-1" d="M7446.29,7204.88q0,6.61-2.74,9.55t-8.08,2.93q-10.57,0-10.87-11.7v-47.33h-17.28v47q.15,11.74,7.64,18.5t20.51,6.76a34.06,34.06,0,0,0,14.93-3,21.82,21.82,0,0,0,9.69-8.83,26.85,26.85,0,0,0,3.38-13.73v-46.65h-17.18Z" transform="translate(-6871.87 -7128.81)"/><path class="cls-1" d="M7516.58,7192.2a62.75,62.75,0,0,0-12.14-5.11q-7.39-2.39-10.33-4.61c-1.95-1.48-2.93-3.14-2.93-5a6.26,6.26,0,0,1,2.66-5.17,11.77,11.77,0,0,1,7.27-2,10.37,10.37,0,0,1,7.22,2.4,8.61,8.61,0,0,1,2.67,6.75h17.13a20.36,20.36,0,0,0-3.37-11.57,21.82,21.82,0,0,0-9.47-7.81,33.24,33.24,0,0,0-13.78-2.74,38,38,0,0,0-14.2,2.52,22.32,22.32,0,0,0-9.77,7.05,16.77,16.77,0,0,0-3.45,10.45q0,11.9,13.86,18.7a91.2,91.2,0,0,0,11,4.36q6.7,2.25,9.38,4.35a7.09,7.09,0,0,1,2.66,5.88,6,6,0,0,1-2.47,5.16,11.08,11.08,0,0,1-6.73,1.84q-6.66,0-9.62-2.72c-2-1.81-3-4.63-3-8.44h-17.23a22.14,22.14,0,0,0,3.55,12.45,23.59,23.59,0,0,0,10.57,8.52,38.38,38.38,0,0,0,15.69,3.11q12.28,0,19.34-5.34t7-14.68Q7528.13,7198.86,7516.58,7192.2Z" transform="translate(-6871.87 -7128.81)"/><path class="cls-1" d="M7362.28,7158.33v12.94h17.34v36q0,4.8-1.94,7.46a6.39,6.39,0,0,1-5.51,2.67q-4,0-5.65-2.2c-1.13-1.47-1.69-3.83-1.69-7.1H7347.6q0,10.77,6.46,16.65t18.11,5.87a26.91,26.91,0,0,0,12.61-2.94,21.51,21.51,0,0,0,8.81-8.27,23.33,23.33,0,0,0,3.16-12.14v-48.9h-34.47Z" transform="translate(-6871.87 -7128.81)"/><path id="path5060-6-6" class="cls-2" d="M6956.37,7259.12a6.71,6.71,0,0,0,6.72-6.71v-12l1.19,1.19a7.1,7.1,0,0,0,8.84,1.19,6.8,6.8,0,0,0,1-10.41l-11-11a.24.24,0,0,1-.05-.14v-55.32a.2.2,0,0,0-.2-.2h-4a.2.2,0,0,0-.2.2v50.58a.2.2,0,0,1-.34.14l-25.8-25.8a.19.19,0,0,1,0-.28l9.58-9.58a.17.17,0,0,1,.14-.06h3.83a6.39,6.39,0,0,0,6.51-6.51,5.91,5.91,0,0,0-1.95-4.56l-17.81-17.81a6.52,6.52,0,0,0-11.08,4.56v3.82a.17.17,0,0,1-.06.14l-25,25a.17.17,0,0,1-.14.06h-3.83a6.39,6.39,0,0,0-6.51,6.52,5.94,5.94,0,0,0,1.95,4.56l17.81,17.81a6.52,6.52,0,0,0,11.08-4.56v-3.83a.2.2,0,0,1,.06-.14l5.58-5.59a.21.21,0,0,1,.29,0l35.63,35.64a.2.2,0,0,1,.06.14v16.23a2.37,2.37,0,0,1-2.37,2.37h-62.59a.2.2,0,0,1-.2-.2v-10.46a6.71,6.71,0,0,0-6.71-6.72h-10.46a.2.2,0,0,1-.2-.2V7135.52a2.37,2.37,0,0,1,2.37-2.37h77.79a2.37,2.37,0,0,1,2.37,2.37v8.29a.2.2,0,0,0,.2.2h4a.2.2,0,0,0,.2-.2v-8.29a6.71,6.71,0,0,0-6.72-6.71h-77.79a6.7,6.7,0,0,0-6.71,6.71v104.84a.24.24,0,0,0,.05.14l18.57,18.56a.17.17,0,0,0,.14.06Zm-29.56-104a2.11,2.11,0,0,1,3,0l17.81,17.81a2.11,2.11,0,0,1,0,3,2,2,0,0,1-1.52.65h-3.83a.17.17,0,0,1-.14-.06l-16-16a.17.17,0,0,1-.06-.14v-3.82A2.35,2.35,0,0,1,6926.81,7155.09Zm-2.68,9.48,14.06,14.05a.21.21,0,0,1,0,.28l-23.1,23.1a.21.21,0,0,1-.28,0l-14.06-14.06a.21.21,0,0,1,0-.28l23.1-23.09A.19.19,0,0,1,6924.13,7164.57Zm-12,46.91a2.13,2.13,0,0,1-3.05,0l-17.8-17.81a2.1,2.1,0,0,1,0-3,1.93,1.93,0,0,1,1.51-.66h3.83a.2.2,0,0,1,.14.06l16,16a.2.2,0,0,1,.06.14V7210A2.39,2.39,0,0,1,6912.13,7211.48Zm17.15-17.59a.19.19,0,0,1,.28,0l41.56,41.56a2.45,2.45,0,0,1-3.47,3.47l-41.56-41.56a.19.19,0,0,1,0-.28Zm-40,50.23v7.14a.2.2,0,0,1-.34.14l-9.31-9.31a.2.2,0,0,1,.14-.34h7.14A2.37,2.37,0,0,1,6889.24,7244.12Z" transform="translate(-6871.87 -7128.81)"/><path id="path5062-9-7" class="cls-2" d="M6937.68,7149l4.3-4.3,3.07,3.07-4.3,4.3Z" transform="translate(-6871.87 -7128.81)"/><path id="path5064-7-3-5" class="cls-2" d="M6944.22,7155.46l8.75-8.75,3.07,3.07-8.75,8.75Z" transform="translate(-6871.87 -7128.81)"/><path id="path5066-7-3" class="cls-2" d="M6950.76,7162l13.05-13.06,3.07,3.07L6953.83,7165Z" transform="translate(-6871.87 -7128.81)"/><path id="path5068-4-5" class="cls-2" d="M6882.72,7139.67h51.33V7144h-51.33Z" transform="translate(-6871.87 -7128.81)"/><path id="path5070-6-5-6" class="cls-2" d="M6882.72,7153.37h34.76v4.34h-34.76Z" transform="translate(-6871.87 -7128.81)"/><path id="path5072-2-2" class="cls-2" d="M6882.72,7167.07h22.52v4.35h-22.52Z" transform="translate(-6871.87 -7128.81)"/><path id="path5074-5-9" class="cls-2" d="M6882.72,7180.78h5v4.34h-5Z" transform="translate(-6871.87 -7128.81)"/><path id="path5074-5-9-2" data-name="path5074-5-9" class="cls-2" d="M6882.72,7208.19h11.18v4.34h-11.18Z" transform="translate(-6871.87 -7128.81)"/><path id="path5072-2-2-2" data-name="path5072-2-2" class="cls-2" d="M6947.34,7248h-13.82v-4.35h13.82Z" transform="translate(-6871.87 -7128.81)"/><path id="path5074-5-9-3" data-name="path5074-5-9" class="cls-2" d="M6935.24,7237.1H6900.1v-4.35h35.14Z" transform="translate(-6871.87 -7128.81)"/><polygon class="cls-2" points="66.94 105.79 69.74 106.58 67.81 109 69.23 109.96 70.83 107.45 72.45 110.05 73.86 109.04 72 106.68 74.84 105.89 74.32 104.26 71.62 105.35 71.8 102.19 70.06 102.19 70.23 105.29 67.47 104.18 66.94 105.79"/><polygon class="cls-2" points="27.81 94.82 30.6 95.61 28.68 98.03 30.09 98.99 31.69 96.48 33.31 99.08 34.73 98.07 32.86 95.71 35.71 94.92 35.18 93.29 32.48 94.38 32.66 91.22 30.92 91.22 31.1 94.32 28.33 93.21 27.81 94.82"/><polygon class="cls-2" points="39.14 94.82 41.93 95.61 40.01 98.03 41.42 98.99 43.03 96.48 44.65 99.08 46.06 98.07 44.19 95.71 47.04 94.92 46.51 93.29 43.82 94.38 44 91.22 42.25 91.22 42.43 94.32 39.66 93.21 39.14 94.82"/><polygon class="cls-2" points="28.23 116.54 31.03 117.33 29.11 119.75 30.52 120.71 32.12 118.2 33.74 120.8 35.16 119.8 33.29 117.43 36.13 116.64 35.61 115.01 32.91 116.1 33.09 112.94 31.35 112.94 31.53 116.04 28.76 114.93 28.23 116.54"/><polygon class="cls-2" points="39.27 116.54 42.06 117.33 40.14 119.75 41.56 120.71 43.16 118.2 44.78 120.8 46.19 119.8 44.32 117.43 47.17 116.64 46.65 115.01 43.95 116.1 44.13 112.94 42.38 112.94 42.56 116.04 39.8 114.93 39.27 116.54"/><polygon class="cls-2" points="50.35 116.54 53.14 117.33 51.22 119.75 52.63 120.71 54.24 118.2 55.85 120.8 57.27 119.8 55.4 117.43 58.25 116.64 57.72 115.01 55.03 116.1 55.21 112.94 53.46 112.94 53.64 116.04 50.87 114.93 50.35 116.54"/><rect class="cls-2" x="10.86" y="93.09" width="12.81" height="4.34"/><rect class="cls-2" x="50.47" y="93.09" width="15.25" height="4.34"/></svg>